# xmcd CD database file
#
# Track frame offsets:
#	150
#	15882
#	30365
#	41772
#	55635
#	69977
#	83705
#	97835
#
# Disc length: 1518 seconds
#
# Revision: 0
# Processed by: cddbd v1.4PL0 Copyright (c) Steve Scherf et al.
# Submitted via: CDex 1.50
#
DISCID=4a05ec08
DTITLE=Ralfi - Rafi Pagan
DYEAR=1900
DGENRE=Salsa
TTITLE0=Brother Where Are You
TTITLE1=Didn't Want To Have Ti Do It
TTITLE2=Wonderful Thing
TTITLE3=The Gambler
TTITLE4=Too Late
TTITLE5=I'd Have You Anytime
TTITLE6=Up On The Roof
TTITLE7=The Bottom Line
EXTD=
EXTT0=
EXTT1=
EXTT2=
EXTT3=
EXTT4=
EXTT5=
EXTT6=
EXTT7=
PLAYORDER=
